<?xml version="1.0" standalone="no"?>
<!DOCTYPE svg PUBLIC "-//W3C//DTD SVG 20010904//EN"
 "http://www.w3.org/TR/2001/REC-SVG-20010904/DTD/svg10.dtd">
<svg version="1.0" xmlns="http://www.w3.org/2000/svg"
 width="200.000000pt" height="200.000000pt" viewBox="0 0 200.000000 200.000000"
 preserveAspectRatio="xMidYMid meet">
<metadata>
Created by potrace 1.11, written by Peter Selinger 2001-2013
</metadata>
<g transform="translate(0.000000,200.000000) scale(0.100000,-0.100000)"
fill="#000000" stroke="none">
<path d="M670 1981 c-188 -40 -343 -143 -436 -287 -31 -48 -62 -113 -69 -144
-2 -8 -8 -35 -14 -60 -15 -67 -6 -234 17 -307 87 -274 335 -444 652 -446 159
-1 262 19 377 75 118 57 197 128 266 241 61 99 82 182 82 317 -1 127 -16 193
-69 290 -88 164 -255 280 -467 326 -69 15 -258 12 -339 -5z m285 -367 c50 -23
105 -78 130 -129 15 -30 20 -61 20 -120 0 -69 -4 -86 -27 -126 -128 -218 -444
-167 -493 80 -27 132 59 275 185 309 52 14 141 7 185 -14z"/>
<path d="M1450 866 c-14 -7 -94 -52 -177 -100 l-153 -87 14 -27 c8 -15 62
-110 121 -212 59 -102 139 -240 177 -307 62 -109 72 -121 89 -112 21 11 333
190 336 193 1 1 -36 69 -84 151 -47 83 -94 166 -105 185 -105 182 -182 316
-187 322 -4 4 -18 2 -31 -6z"/>
</g>
</svg>
